<svg width="40" height="30" viewBox="0 0 40 30" fill="none" xmlns="http://www.w3.org/2000/svg">
<path d="M0 2.5C0 1.11953 1.27947 0 2.85714 0H37.1429C38.7233 0 40 1.11953 40 2.5C40 3.8828 38.7233 5 37.1429 5H2.85714C1.27947 5 0 3.8828 0 2.5ZM0 15C0 13.6172 1.27947 12.5 2.85714 12.5H37.1429C38.7233 12.5 40 13.6172 40 15C40 16.3828 38.7233 17.5 37.1429 17.5H2.85714C1.27947 17.5 0 16.3828 0 15ZM37.1429 30H2.85714C1.27947 30 0 28.8828 0 27.5C0 26.1172 1.27947 25 2.85714 25H37.1429C38.7233 25 40 26.1172 40 27.5C40 28.8828 38.7233 30 37.1429 30Z" fill="#B4161B"/>
</svg>
