<svg width="72" height="72" viewBox="0 0 72 72" fill="none" xmlns="http://www.w3.org/2000/svg">
<path d="M72 0H0V72H72V0Z" fill="#F5F5F5"/>
<path d="M72 0H0V72H72V0Z" fill="#1F1F1F" fill-opacity="0.92"/>
<path d="M42.1163 14.8498L35.3721 4.36694C35.2601 4.19524 35.127 4.05965 34.9807 3.96721C34.8338 3.87476 34.6772 3.82808 34.5189 3.82985C34.2034 3.83161 33.9012 4.02443 33.6777 4.36694L16.6078 30.5731C16.3838 30.92 16.2581 31.3893 16.2581 31.8788C16.2581 32.3675 16.3838 32.8377 16.6078 33.1845L23.4114 43.6665C23.524 43.8382 23.6572 43.9738 23.8035 44.0662C23.9498 44.1587 24.1069 44.2054 24.2652 44.2035C24.5801 44.2018 24.8824 44.009 25.1065 43.6665L28.5085 38.4251L38.7143 22.7018L42.1163 17.4604C42.3403 17.1134 42.4661 16.6441 42.4661 16.1546C42.4661 15.6659 42.3403 15.1967 42.1163 14.8498ZM37.861 18.7758L37.0072 17.4604C36.7821 17.116 36.4774 16.9224 36.1597 16.9224C35.8425 16.9224 35.5374 17.116 35.3122 17.4604C35.1995 17.6329 35.1104 17.8381 35.0492 18.0634C34.9881 18.2888 34.9567 18.531 34.9567 18.7758C34.9567 19.0205 34.9881 19.2617 35.0492 19.488C35.1104 19.7134 35.1995 19.9186 35.3122 20.0903L36.166 21.4057L34.4589 24.0171L31.9106 20.0903C31.6803 19.7874 31.3849 19.6289 31.082 19.6465C30.7796 19.665 30.4928 19.8578 30.2785 20.188C30.0642 20.5173 29.939 20.9593 29.927 21.4259C29.9156 21.8917 30.0184 22.3478 30.2156 22.7018L32.7639 26.6277L31.0569 29.2577L30.2156 27.9431C29.9893 27.5945 29.6818 27.3981 29.3618 27.3981C29.0418 27.3981 28.7348 27.5945 28.5085 27.9431C28.2822 28.2918 28.1548 28.7646 28.1548 29.2577C28.1548 29.7516 28.2822 30.2244 28.5085 30.5731L29.3618 31.8691L27.6668 34.4991L25.1065 30.5731C24.8813 30.228 24.5767 30.0342 24.259 30.0342C23.9412 30.0342 23.6366 30.228 23.4114 30.5731C23.1874 30.92 23.0623 31.3893 23.0623 31.8788C23.0623 32.3675 23.1874 32.8377 23.4114 33.1845L25.9597 37.1105L24.2652 39.7405L19.1561 31.8691L34.4589 8.29293L39.5681 16.1643L37.861 18.7758Z" fill="#FF3343"/>
<path d="M24.3287 65.8723H54.6383C55.085 65.8723 55.5133 65.6056 55.8287 65.1321C56.1449 64.6575 56.3226 64.0146 56.3226 63.3452V17.8462C56.3226 17.1769 56.1449 16.534 55.8287 16.0594C55.5133 15.5859 55.085 15.3191 54.6383 15.3191H44.5348C44.089 15.3191 43.6598 15.5859 43.3445 16.0594C43.0291 16.534 42.8513 17.1769 42.8513 17.8462V45.6505H24.3287C23.882 45.6505 23.4538 45.9173 23.1383 46.3908C22.8221 46.8654 22.6452 47.5083 22.6452 48.1789V63.3452C22.6452 64.0146 22.8221 64.6575 23.1383 65.1321C23.4538 65.6056 23.882 65.8723 24.3287 65.8723ZM26.0122 50.706H29.38V53.2343C29.38 53.9049 29.5578 54.5477 29.8732 55.0212C30.1894 55.4959 30.6177 55.7614 31.0644 55.7614C31.511 55.7614 31.9393 55.4959 32.2548 55.0212C32.571 54.5477 32.7478 53.9049 32.7478 53.2343V50.706H36.1157V53.2343C36.1157 53.9049 36.2934 54.5477 36.6088 55.0212C36.925 55.4959 37.3533 55.7614 37.8 55.7614C38.2459 55.7614 38.6742 55.4959 38.9904 55.0212C39.3058 54.5477 39.4835 53.9049 39.4835 53.2343V50.706H42.8513V53.2343C42.8513 53.9049 43.0291 54.5477 43.3445 55.0212C43.6598 55.4959 44.089 55.7614 44.5348 55.7614C44.9815 55.7614 45.4098 55.4959 45.726 55.0212C46.0414 54.5477 46.2191 53.9049 46.2191 53.2343V50.706H47.9027C48.3493 50.706 48.7776 50.4405 49.0938 49.9658C49.4092 49.4923 49.5869 48.8494 49.5869 48.1789C49.5869 47.5083 49.4092 46.8654 49.0938 46.3908C48.7776 45.9173 48.3493 45.6505 47.9027 45.6505H46.2191V40.5963H47.9027C48.3493 40.5963 48.7776 40.3296 49.0938 39.8549C49.4092 39.3814 49.5869 38.7386 49.5869 38.068C49.5869 37.3974 49.4092 36.7546 49.0938 36.2812C48.7776 35.8065 48.3493 35.5409 47.9027 35.5409H46.2191V30.4854H47.9027C48.3493 30.4854 48.7776 30.2187 49.0938 29.7452C49.4092 29.2706 49.5869 28.6277 49.5869 27.9571C49.5869 27.2866 49.4092 26.6437 49.0938 26.1703C48.7776 25.6956 48.3493 25.43 47.9027 25.43H46.2191V20.3745H52.9547V60.8168H26.0122V50.706Z" fill="#FF3343"/>
</svg>
