<svg width="74" height="74" viewBox="0 0 74 74" fill="none" xmlns="http://www.w3.org/2000/svg">
<path d="M74 0H0V74H74V0Z" fill="#F5F5F5"/>
<path d="M74 0H0V74H74V0Z" fill="#1F1F1F" fill-opacity="0.92"/>
<path d="M39.8457 42.4526H28.4611C27.7064 42.4526 26.9825 42.7737 26.449 43.3459C25.9156 43.918 25.6154 44.6943 25.6154 45.5035C25.6154 46.3128 25.9156 47.089 26.449 47.6611C26.9825 48.2333 27.7064 48.5544 28.4611 48.5544H39.8457C40.6013 48.5544 41.3252 48.2333 41.8587 47.6611C42.3922 47.089 42.6924 46.3128 42.6924 45.5035C42.6924 44.6943 42.3922 43.918 41.8587 43.3459C41.3252 42.7737 40.6013 42.4526 39.8457 42.4526ZM51.2304 11.9439H47.8726C47.2852 10.1633 46.1987 8.62189 44.762 7.52858C43.3243 6.43626 41.6078 5.84711 39.8457 5.8421H34.1543C32.3922 5.84711 30.6757 6.43626 29.238 7.52858C27.8012 8.62189 26.7148 10.1633 26.1274 11.9439H22.7696C20.5048 11.9439 18.3329 12.9082 16.7317 14.6246C15.1303 16.3412 14.2308 18.6688 14.2308 21.0965V57.707C14.2308 60.1347 15.1303 62.4624 16.7317 64.1789C18.3329 65.8954 20.5048 66.8596 22.7696 66.8596H51.2304C53.4952 66.8596 55.6671 65.8954 57.2683 64.1789C58.8696 62.4624 59.7692 60.1347 59.7692 57.707V21.0965C59.7692 18.6688 58.8696 16.3412 57.2683 14.6246C55.6671 12.9082 53.4952 11.9439 51.2304 11.9439ZM31.3077 14.9947C31.3077 14.1855 31.6078 13.4093 32.1413 12.8371C32.6748 12.265 33.3987 11.9439 34.1543 11.9439H39.8457C40.6013 11.9439 41.3252 12.265 41.8587 12.8371C42.3922 13.4093 42.6924 14.1855 42.6924 14.9947V18.0456H31.3077V14.9947ZM54.077 57.707C54.077 58.5163 53.7768 59.2925 53.2433 59.8646C52.7099 60.4368 51.9859 60.7579 51.2304 60.7579H22.7696C22.0141 60.7579 21.2901 60.4368 20.7567 59.8646C20.2232 59.2925 19.923 58.5163 19.923 57.707V21.0965C19.923 20.2872 20.2232 19.511 20.7567 18.9389C21.2901 18.3667 22.0141 18.0456 22.7696 18.0456H25.6154V21.0965C25.6154 21.9057 25.9156 22.682 26.449 23.2541C26.9825 23.8263 27.7064 24.1474 28.4611 24.1474H45.539C46.2936 24.1474 47.0175 23.8263 47.551 23.2541C48.0844 22.682 48.3846 21.9057 48.3846 21.0965V18.0456H51.2304C51.9859 18.0456 52.7099 18.3667 53.2433 18.9389C53.7768 19.511 54.077 20.2872 54.077 21.0965V57.707ZM45.539 30.2491H28.4611C27.7064 30.2491 26.9825 30.5702 26.449 31.1424C25.9156 31.7145 25.6154 32.4908 25.6154 33.3C25.6154 34.1092 25.9156 34.8855 26.449 35.4576C26.9825 36.0298 27.7064 36.3509 28.4611 36.3509H45.539C46.2936 36.3509 47.0175 36.0298 47.551 35.4576C48.0844 34.8855 48.3846 34.1092 48.3846 33.3C48.3846 32.4908 48.0844 31.7145 47.551 31.1424C47.0175 30.5702 46.2936 30.2491 45.539 30.2491Z" fill="#B4161B"/>
</svg>
