<svg width="50" height="50" viewBox="0 0 50 50" fill="none" xmlns="http://www.w3.org/2000/svg">
<path d="M50 0H0V50H50V0Z" fill="#F5F5F5"/>
<path d="M50 0H0V50H50V0Z" fill="white"/>
<path d="M43.15 9.67519C41.7648 10.4906 40.3008 11.0297 38.8017 11.2766C40.3829 9.99231 41.5671 7.97407 42.1366 5.59116C40.6509 6.79394 39.0244 7.64107 37.3277 8.09635C36.1937 6.4247 34.6829 5.31253 33.0347 4.93426C31.3848 4.55372 29.6897 4.92975 28.214 6.00115C26.7384 7.07255 25.5675 8.77818 24.8824 10.853C24.1974 12.9279 24.0382 15.2519 24.4302 17.4626C21.4252 17.2565 18.4873 16.1919 15.8056 14.3413C13.1222 12.4907 10.7571 9.89259 8.86105 6.71916C8.19607 8.29795 7.84603 10.0852 7.84771 11.9018C7.84603 13.5916 8.15088 15.2542 8.73545 16.7446C9.32003 18.2351 10.1676 19.5058 11.201 20.4413C10.0001 20.3982 8.82422 19.9588 7.774 19.166V19.2906C7.78237 21.6576 8.39376 23.9454 9.50093 25.7711C10.6081 27.5968 12.1474 28.8449 13.8543 29.3069C13.1977 29.5788 12.5142 29.7214 11.8275 29.7328C11.3518 29.726 10.8778 29.6671 10.4088 29.5583C10.8945 31.5924 11.8359 33.3728 13.1005 34.6458C14.3651 35.9211 15.891 36.6278 17.4655 36.6708C14.8073 39.5136 11.5243 41.0651 8.1425 41.0764C7.5261 41.081 6.91136 41.0289 6.29999 40.927C9.75384 43.9577 13.7789 45.5659 17.8893 45.5591C20.7268 45.5999 23.5408 44.8706 26.1672 43.4164C28.7952 41.9622 31.1838 39.8103 33.1921 37.0876C35.2004 34.3627 36.79 31.1235 37.8671 27.556C38.9441 23.9884 39.4867 20.1672 39.465 16.3097C39.465 15.8838 39.465 15.4331 39.465 14.9823C40.9105 13.5168 42.1584 11.7206 43.15 9.67519Z" fill="black"/>
</svg>
