<svg width="74" height="74" viewBox="0 0 74 74" fill="none" xmlns="http://www.w3.org/2000/svg">
<path d="M74 0H0V74H74V0Z" fill="#F5F5F5"/>
<path d="M74 0H0V74H74V0Z" fill="#1F1F1F" fill-opacity="0.92"/>
<path d="M50.1545 42.5127C50.0546 42.6358 49.966 42.7709 49.8899 42.9153C49.8026 43.0435 49.7356 43.188 49.6916 43.3428C49.6245 43.4932 49.5798 43.6548 49.5596 43.8214C49.4702 44.3036 49.5164 44.8054 49.6916 45.2558C49.7908 45.5678 49.9481 45.8517 50.1538 46.0868C50.3596 46.3219 50.6079 46.5022 50.8814 46.6151C51.1423 46.7561 51.4294 46.8253 51.7179 46.8167C52.0041 46.8202 52.2889 46.7603 52.555 46.6399C52.8182 46.4945 53.0627 46.3082 53.2819 46.0868C53.4862 45.8517 53.6472 45.5722 53.7575 45.2661C53.8671 44.9592 53.9222 44.631 53.9208 44.2993C53.9282 43.9694 53.8679 43.642 53.7441 43.3428C53.633 43.0376 53.4764 42.7572 53.2819 42.5127C53.0761 42.2793 52.8323 42.0947 52.5639 41.9691C52.2956 41.8443 52.0078 41.7801 51.7179 41.7827C51.4301 41.7861 51.1461 41.8545 50.8814 41.9836C50.6108 42.1033 50.364 42.2836 50.1545 42.5127ZM41.0797 52.9827C40.9924 53.1118 40.9254 53.2563 40.8814 53.411C40.7987 53.558 40.739 53.7196 40.7055 53.8888C40.6391 54.212 40.6391 54.5479 40.7055 54.871L40.8374 55.3241L41.0357 55.7772L41.2996 56.1542C41.7327 56.626 42.309 56.8885 42.9077 56.8841C43.1976 56.8867 43.4847 56.8226 43.753 56.6978C44.0214 56.5721 44.2659 56.3875 44.4717 56.1542C44.6662 55.9096 44.8228 55.6293 44.9339 55.3241C45.071 54.9428 45.124 54.5282 45.0882 54.1188C45.0531 53.7084 44.9294 53.3144 44.7296 52.9716C44.5291 52.6279 44.2585 52.3467 43.9408 52.1509C43.6234 51.956 43.2684 51.8526 42.9077 51.85C42.3247 51.8595 41.7663 52.1202 41.3436 52.5801L41.0797 52.9827ZM50.1545 52.5801C49.954 52.8194 49.7967 53.1024 49.6916 53.411C49.5067 53.8666 49.4456 54.3752 49.5157 54.871L49.6476 55.3241C49.6961 55.4839 49.7624 55.6369 49.8459 55.7772C49.9272 55.9088 50.0151 56.0353 50.1098 56.1542C50.3193 56.3841 50.5668 56.5636 50.8367 56.6833C51.1006 56.8166 51.3861 56.885 51.6738 56.885C51.9623 56.885 52.2471 56.8166 52.511 56.6833C52.7779 56.5559 53.0239 56.3772 53.2379 56.1542C53.4496 55.9233 53.6196 55.6464 53.7366 55.3394C53.8545 55.0326 53.9163 54.7026 53.9208 54.3675C53.9282 54.0375 53.8679 53.7094 53.7441 53.411C53.633 53.1058 53.4764 52.8255 53.2819 52.5801C53.068 52.3578 52.8219 52.1792 52.555 52.0518C52.2911 51.9185 52.0063 51.85 51.7179 51.85C51.4301 51.85 51.1445 51.9185 50.8814 52.0518C50.6108 52.1714 50.364 52.351 50.1545 52.5801ZM40.8814 45.2558C40.9865 45.5644 41.1431 45.8474 41.3436 46.0868C41.7663 46.5467 42.3247 46.8074 42.9077 46.8167C43.2684 46.8143 43.6234 46.7108 43.9408 46.5159C44.2585 46.3201 44.5291 46.0389 44.7296 45.6953C44.9294 45.3525 45.0531 44.9584 45.0882 44.5489C45.124 44.1386 45.071 43.724 44.9339 43.3428C44.8228 43.0376 44.6662 42.7572 44.4717 42.5127C44.2659 42.2793 44.0214 42.0947 43.753 41.9691C43.4847 41.8443 43.1976 41.7801 42.9077 41.7827C42.3247 41.7921 41.7663 42.0528 41.3436 42.5127C41.0379 42.8667 40.8315 43.3153 40.7487 43.8044C40.6667 44.2925 40.7129 44.7977 40.8814 45.2558ZM50.1545 32.4445C49.96 32.6889 49.8035 32.9702 49.6916 33.2746C49.5231 33.7335 49.4769 34.2388 49.5589 34.7269C49.6417 35.215 49.8489 35.6647 50.1545 36.0185C50.364 36.2477 50.6108 36.4271 50.8814 36.5468C51.1445 36.6802 51.4301 36.7494 51.7179 36.7494C52.0063 36.7494 52.2911 36.6802 52.555 36.5468C52.8219 36.4195 53.068 36.2409 53.2819 36.0185C53.4862 35.7835 53.6472 35.5048 53.7575 35.1979C53.8671 34.8911 53.9222 34.5628 53.9208 34.2311C53.9282 33.9012 53.8679 33.5737 53.7441 33.2746C53.633 32.9702 53.4764 32.6889 53.2819 32.4445C52.9725 32.0948 52.5789 31.8589 52.1517 31.764C51.7245 31.67 51.2825 31.723 50.8814 31.9153C50.6108 32.0359 50.364 32.2153 50.1545 32.4445ZM23.0844 34.2311V54.3675C23.0844 55.0352 23.3165 55.6754 23.7295 56.1473C24.1426 56.6192 24.7028 56.8841 25.287 56.8841H34.0974C34.6819 56.8841 35.2418 56.6192 35.6547 56.1473C36.0678 55.6754 36.2996 55.0352 36.2996 54.3675V34.2311C36.2996 33.5634 36.0678 32.924 35.6547 32.4513C35.2418 31.9795 34.6819 31.7145 34.0974 31.7145H25.287C24.7028 31.7145 24.1426 31.9795 23.7295 32.4513C23.3165 32.924 23.0844 33.5634 23.0844 34.2311ZM31.8948 36.7486V51.85H27.4896V36.7486H31.8948ZM14.2741 29.197V59.4017C14.2741 61.4045 14.9703 63.3244 16.2095 64.7409C17.4487 66.1574 19.1295 66.9524 20.8819 66.9524H56.1229C57.8758 66.9524 59.5568 66.1574 60.7954 64.7409C62.0347 63.3244 62.731 61.4045 62.731 59.4017V29.197C62.731 27.195 62.0347 25.2741 60.7954 23.8578C59.5568 22.4421 57.8758 21.6463 56.1229 21.6463H20.8819C19.1295 21.6463 17.4487 22.4421 16.2095 23.8578C14.9703 25.2741 14.2741 27.195 14.2741 29.197ZM56.1229 26.6804C56.7072 26.6804 57.2671 26.9454 57.6808 27.4172C58.0938 27.89 58.3258 28.5302 58.3258 29.197V59.4017C58.3258 60.0693 58.0938 60.7095 57.6808 61.1814C57.2671 61.6533 56.7072 61.9183 56.1229 61.9183H20.8819C20.2976 61.9183 19.7374 61.6533 19.3244 61.1814C18.9114 60.7095 18.6793 60.0693 18.6793 59.4017V29.197C18.6793 28.5302 18.9114 27.89 19.3244 27.4172C19.7374 26.9454 20.2976 26.6804 20.8819 26.6804H56.1229ZM41.0797 32.8471C40.9924 32.9754 40.9254 33.1207 40.8814 33.2746C40.8143 33.425 40.7696 33.5866 40.7494 33.7533C40.6831 34.0764 40.6831 34.4123 40.7494 34.7346L40.8814 35.1876L41.0797 35.6407L41.3436 36.0185C41.7663 36.4785 42.3247 36.7391 42.9077 36.7486C43.2684 36.746 43.6234 36.6434 43.9408 36.4476C44.2585 36.2519 44.5291 35.9707 44.7296 35.6279C44.9294 35.2842 45.0531 34.891 45.0882 34.4807C45.124 34.0704 45.071 33.6566 44.9339 33.2746C44.8228 32.9702 44.6662 32.6889 44.4717 32.4445C44.2659 32.2112 44.0214 32.0265 43.753 31.9017C43.4847 31.776 43.1976 31.7127 42.9077 31.7145C42.3247 31.7239 41.7663 31.9847 41.3436 32.4445L41.0797 32.8471Z" fill="#FF3343"/>
<path d="M19.9737 5.37463C19.8321 5.50572 19.7203 5.66058 19.6447 5.831C19.5691 6.00061 19.5312 6.1825 19.5331 6.36603L19.6577 14.7274C19.6612 14.9109 19.7046 15.092 19.7853 15.2599C19.8659 15.4287 19.9823 15.5803 20.1276 15.7073C20.2714 15.8368 20.4418 15.9384 20.6289 16.0072C20.8159 16.076 21.0161 16.1104 21.2178 16.1088L27.3533 16.0326L51.05 15.74C51.2518 15.7376 51.4508 15.6975 51.6356 15.6245C51.8202 15.5509 51.9877 15.4451 52.1273 15.3132L56.6613 11.0756C56.9452 10.811 57.1015 10.4545 57.0965 10.0842C57.0899 9.71466 56.9231 9.36158 56.6327 9.10428L51.9733 4.98054C51.8282 4.83633 51.6508 4.72244 51.4536 4.6446C51.2562 4.56758 51.0437 4.52825 50.8284 4.53072L27.198 4.88139L21.105 4.89778C20.901 4.90515 20.7001 4.94448 20.5103 5.01331C20.4145 5.08377 20.3284 5.16406 20.2537 5.25337C20.1987 5.29516 20.1486 5.34186 20.104 5.39266L19.9737 5.37463ZM50.2852 7.37793L53.3948 10.1301L50.369 12.9584L28.8403 13.2239L28.757 7.64341L50.2852 7.37793ZM25.7001 7.68105L25.7833 13.2616L22.7154 13.2895L22.6325 7.72862L25.7001 7.68105Z" fill="#FF3343"/>
</svg>
