<svg width="50" height="51" viewBox="0 0 50 51" fill="none" xmlns="http://www.w3.org/2000/svg">
<rect width="50" height="51" fill="#1F1F1F"/>
<path d="M50 0H0V51H50V0Z" fill="#F5F5F5"/>
<path d="M50 0H0V51H50V0Z" fill="white"/>
<path d="M43.6417 19.5725C43.7234 15.7454 43.2033 11.9482 42.1263 8.53228C41.3961 7.131 40.3826 6.18456 39.2634 5.85836C34.6299 5.18528 29.9796 4.90736 25.3279 5.0314C20.6944 4.90276 16.0596 5.16923 11.4431 5.83312C10.531 6.09959 9.68526 6.78643 9.01287 7.81098C7.51444 10.0301 7.34818 13.825 7.18184 17.0319C6.93939 22.8001 6.93939 28.5867 7.18184 34.3549C7.22977 36.1605 7.39602 37.9523 7.68077 39.7004C7.88093 41.0512 8.28692 42.2986 8.86205 43.3346C9.54007 44.4143 10.4056 45.1402 11.343 45.4205C14.9319 46.1326 18.549 46.4267 22.1646 46.3026C27.992 46.4358 33.1033 46.3026 39.1463 45.5537C40.1077 45.2918 40.9972 44.5636 41.6935 43.4702C42.1601 42.7213 42.5083 41.8047 42.7099 40.7962C43.3047 37.8627 43.5966 34.7937 43.5754 31.7086C43.6417 30.2108 43.6417 21.176 43.6417 19.5725ZM21.5656 33.312V16.7654L31.4216 25.0789C28.6574 27.5369 25.0121 30.3188 21.5656 33.312Z" fill="black"/>
</svg>
